<svg width="67" height="67" viewBox="0 0 67 67" fill="none" xmlns="http://www.w3.org/2000/svg">
<path d="M2 2C2 7.21323 4.31149 12.471 6.16376 17.2149C8.81296 23.9998 11.6689 30.3859 16.9157 35.3223C18.5138 36.8258 19.3668 38.43 21.264 39.5165C23.7293 40.9284 25.7113 40.7364 28.3002 41.1653C31.6929 41.7274 36.3652 42.2481 39.7637 41.281C46.4945 39.3656 51.1613 37.1318 53.8098 29.595C55.8178 23.881 55.9563 19.4508 51.2799 16.0289C46.0439 12.1974 45.1496 12.2756 39.1917 12.2756C36.2255 12.2756 29.5117 12.695 28.3002 15.0716C26.1633 17.4171 24.8984 19.0273 24.2946 22.3414C22.7161 31.0044 24.7155 41.5407 29.9341 46.7479C36.437 53.2368 41.8186 57.9736 50.7529 59.7934C54.4335 60.5431 58.1188 61.3908 61.7684 62.281C62.0282 62.3444 65.1113 62.8844 64.8811 63.3436C63.3712 64.2906 60.0981 64.9634 58.5037 64.9634M58.5037 64.9634C55.763 64.9634 52.9665 65 50.2258 65C49.07 65 51.2918 65 53.0113 65C53.6481 64.9864 57.786 65.0049 58.5037 64.9634ZM58.5037 64.9634C60.6055 64.842 62.5639 64.562 64.6145 63.438C66.7671 63.0242 59.1552 52.8553 60.2076 51.7001" stroke="white" stroke-width="3" stroke-linecap="round"/>
</svg>
